<svg xmlns="http://www.w3.org/2000/svg" xmlns:xlink="http://www.w3.org/1999/xlink" width="500" zoomAndPan="magnify" viewBox="0 0 375 374.999991" height="500" preserveAspectRatio="xMidYMid meet" version="1.0"><defs><g/></defs><rect x="-37.5" width="450" fill="#ffffff" y="-37.499999" height="449.999989" fill-opacity="1"/><rect x="-37.5" width="450" fill="#ffffff" y="-37.499999" height="449.999989" fill-opacity="1"/><path stroke-linecap="butt" transform="matrix(0.169559, -0.0379921, 0.0379921, 0.169559, 40.271637, 97.004833)" fill="none" stroke-linejoin="miter" d="M 532.611157 78.072959 C 534.190388 75.754436 536.220546 74.919211 538.745506 75.577114 C 541.314338 76.244847 543.396839 77.540817 545.010032 79.491875 C 546.667097 81.452764 546.944082 83.403917 545.797115 85.335503 C 543.855254 88.655545 541.442993 93.252448 538.592098 99.087256 C 535.794907 104.888021 532.365385 111.146083 528.271766 117.9004 C 524.192892 124.588908 519.414693 131.005534 513.964021 137.133258 C 508.540201 143.24396 502.32585 148.256025 495.299031 152.164538 C 488.299064 156.05603 480.514935 157.997917 471.919793 158.007222 C 461.622717 158.003788 453.362075 154.977955 447.132951 148.951658 C 440.903828 142.925362 437.800403 134.258957 437.80074 122.947529 C 437.807096 116.544476 438.23361 109.705699 439.080282 102.431197 C 439.980656 95.122653 441.894198 87.096578 444.77212 78.365078 L 445.135113 77.156301 C 446.85178 71.551146 447.053476 67.772083 445.784075 65.828942 C 444.541525 63.868781 442.134166 62.891662 438.513209 62.909694 C 434.945956 62.893682 430.637416 62.895877 425.543719 62.906448 C 423.427269 62.892982 421.334668 63.184349 419.270831 63.758613 C 417.233845 64.315856 415.140247 66.565204 413.004783 70.440846 C 412.637601 71.257044 412.221631 72.085347 411.800746 72.935587 C 411.423734 73.795658 411.051637 74.633792 410.662519 75.445074 C 408.897334 79.518871 407.281515 83.234495 405.824894 86.548073 C 404.400039 89.822693 403.190724 92.546629 402.184842 94.671091 C 391.491509 117.616556 378.514235 135.949564 363.231083 149.665201 C 347.969867 163.385752 329.960491 170.247327 309.154166 170.262031 C 297.842737 170.261694 288.452055 167.858092 280.933331 163.06333 C 273.497438 158.310165 267.919578 152.153341 264.194838 144.614794 C 260.506779 137.015354 258.635616 129.224034 258.652072 121.233644 C 258.641676 113.260276 260.254573 105.650628 263.495676 98.382765 C 266.680801 91.056284 271.187481 85.131725 277.025547 80.565215 C 282.873444 75.954832 289.67799 73.655229 297.466038 73.649385 C 300.367646 73.654475 301.809077 74.829842 301.817184 77.158465 C 301.822933 83.610305 304.591024 88.838072 310.148307 92.824743 C 315.70559 96.811414 322.468459 98.81052 330.441827 98.800124 C 337.237459 98.802292 344.231151 97.097975 351.400967 93.682256 C 358.619571 90.254431 365.424656 84.867899 371.843073 77.505638 C 378.293258 70.10442 383.752386 60.545976 388.232566 48.879095 C 391.728072 39.756107 395.624439 30.077882 399.916752 19.866356 C 404.182213 9.671852 408.553531 -1.097913 413.020877 -12.399067 C 403.840092 -14.916903 395.327781 -14.866001 387.44007 -12.256192 C 379.596232 -9.636552 373.292587 -5.151323 368.480346 1.2116 C 363.748659 7.523459 361.365714 14.868416 361.358361 23.229448 C 361.365835 27.308793 362.437539 30.751162 364.573475 33.556554 C 366.70941 36.361947 369.345236 37.758859 372.480953 37.747292 C 373.806791 40.877999 373.883077 44.650235 372.697704 49.015211 C 371.556204 53.390017 369.286119 57.558023 365.855681 61.558187 C 362.478947 65.524308 358.105972 68.898605 352.741672 71.659141 C 347.435991 74.363699 341.257311 75.720765 334.232486 75.713318 C 326.259117 75.723713 319.518185 73.729523 314.075499 69.745491 C 308.659664 65.744438 304.570112 60.450957 301.811757 53.843111 C 299.107106 47.201222 297.751494 40.193512 297.761944 32.846832 C 297.761824 20.406454 300.374408 8.64364 305.594781 -2.419674 C 310.873773 -13.538967 318.36197 -23.310863 328.091138 -31.774319 C 337.830136 -40.281647 349.250775 -46.937769 362.362885 -51.786557 C 375.518868 -56.625514 389.977568 -59.053113 405.756005 -59.042501 C 425.362657 -59.049556 438.127084 -54.738135 444.066308 -46.081386 C 450.010447 -37.446572 450.148555 -25.827671 444.5124 -11.263639 C 440.405597 1.615748 435.669103 14.837836 430.25413 28.414731 C 430.253767 28.621989 430.160742 28.831522 429.970142 29.065268 C 427.795087 34.659866 427.566903 38.248692 429.334377 39.819641 C 431.079915 41.385675 433.231592 42.167279 435.740621 42.176557 C 437.306022 42.181741 439.437218 42.129398 442.156144 42.024443 C 444.897006 41.924403 447.642783 41.802427 450.337497 41.599896 C 454.244354 41.231246 456.794886 39.821487 458.02805 37.402385 C 459.319832 34.927305 460.918629 31.184829 462.878144 26.140917 C 469.531372 7.243312 475.906442 -8.767793 482.042313 -21.860633 C 488.170993 -35.024197 494.808586 -45.00972 501.994049 -51.785435 C 509.206365 -58.578171 517.478278 -61.977326 526.782939 -61.96588 C 534.178407 -61.967536 540.16786 -59.704009 544.71953 -55.13634 C 549.341925 -50.575862 551.640437 -43.149543 551.632088 -32.83053 C 551.633205 -22.348133 549.044012 -11.409434 543.881529 0.0124163 C 538.702025 11.407415 531.519847 21.869896 522.356931 31.404774 C 513.247718 40.905609 502.679595 48.075277 490.647646 52.935713 C 485.001176 55.310497 482.185779 60.369977 482.179517 68.109236 C 482.19437 74.931719 484.171296 80.811571 488.168915 85.692812 C 492.149513 90.547203 497.646171 92.953727 504.622209 92.97328 C 509.901227 92.958158 515.089767 91.701765 520.214679 89.187081 C 525.398209 86.616417 529.523056 82.910072 532.611157 78.072959 Z M 494.143625 12.965368 C 491.816658 20.368943 490.74288 25.058413 490.954056 26.99482 C 491.138381 28.948249 491.887678 29.922458 493.223885 29.922364 C 496.174281 29.915348 499.425228 28.155698 502.976727 24.643413 C 506.598949 21.123938 509.666299 16.996343 512.178775 12.260631 C 514.74004 7.512812 516.012794 3.374755 516.018975 -0.148626 C 516.020147 -4.986278 513.98106 -7.401367 509.90663 -7.41583 C 505.805349 -7.413271 502.595272 -5.321936 500.276398 -1.141824 C 497.957525 3.038289 495.913267 7.740686 494.143625 12.965368 Z M 580.774325 158.000681 C 569.092254 158.009447 559.499593 155.376287 552.003533 150.171925 C 544.549069 144.884732 539.011622 137.930644 535.396106 129.287724 C 531.79042 120.600931 530.034486 111.061529 530.133221 100.64758 C 530.22704 90.255567 532.027708 79.854357 535.557163 69.448865 C 539.059766 59.060394 544.1214 49.528075 550.7103 40.890865 C 557.313944 32.187846 565.345824 25.233179 574.805938 20.026865 C 584.258861 14.749826 594.916561 12.115616 606.783953 12.102298 C 615.903292 12.118296 623.329894 13.828405 629.085696 17.237539 C 634.824476 20.619822 639.047101 25.113763 641.765676 30.768151 C 644.462316 36.417624 645.826936 42.45977 645.82058 48.862822 C 645.813133 55.887648 643.874557 62.894456 639.982917 69.878331 C 636.135149 76.872036 630.692395 82.655968 623.671677 87.256979 C 616.682725 91.819031 608.43229 94.094153 598.871584 94.094449 C 594.792239 94.101922 590.803642 93.807202 586.895964 93.25416 C 583.003031 92.635309 579.420938 91.3489 576.149684 89.394933 C 575.148528 88.825044 574.068367 88.813396 572.870242 89.328221 C 571.72582 89.809003 571.155569 91.017416 571.159487 92.95346 C 571.157952 97.998369 574.143037 101.84642 580.065953 104.509717 C 586.003615 107.107205 593.152962 108.409626 601.513995 108.416979 C 611.440428 108.429516 621.70291 105.914091 632.279503 100.865788 C 642.882948 95.800465 651.476798 88.188434 658.073157 78.078484 C 659.630452 75.755046 661.682547 74.924736 664.207506 75.582638 C 666.754402 76.245456 668.85884 77.546342 670.472032 79.4974 C 672.134012 81.436353 672.389061 83.38259 671.259116 85.341028 C 658.38207 109.087312 644.295871 127.125775 629.01754 139.483268 C 613.76606 151.82374 597.686627 157.988899 580.774325 158.000681 Z M 591.331611 72.224 C 596.927569 72.233817 601.317296 70.429836 604.500791 66.812058 C 607.728159 63.204109 609.351168 59.55921 609.352798 55.850507 C 609.348785 52.578257 608.227202 49.769767 606.005069 47.451891 C 603.775746 45.06329 600.425123 43.87482 595.953199 43.886481 C 590.308453 43.88877 585.813959 45.646239 582.491655 49.163803 C 579.218138 52.66926 577.580384 56.379969 577.583306 60.273993 C 577.582767 63.360922 578.692244 66.120623 580.923843 68.601885 C 583.148251 71.012422 586.630493 72.230383 591.331611 72.224 Z M 682.304114 157.988605 C 672.394701 158.002919 664.877162 153.922591 659.79537 145.75745 C 654.762365 137.580204 652.249943 126.995867 652.241082 113.977589 C 652.262817 105.758005 653.270504 97.045169 655.31293 87.826975 C 657.365187 78.564908 660.370539 69.47032 664.350921 60.548126 C 668.35324 51.630847 673.35635 43.490713 679.394295 36.181429 C 685.43224 28.872144 692.433204 23.022672 700.414208 18.659864 C 708.395212 14.297057 717.433081 12.10622 727.544836 12.114206 C 733.396839 12.112281 737.904354 12.661498 741.072296 13.739922 C 744.315877 14.789219 746.764106 16.098023 748.416983 17.666332 C 750.06986 19.234642 751.476886 20.563564 752.616123 21.648183 C 753.809063 22.698759 755.371098 23.233056 757.329078 23.234052 C 760.601328 23.230039 763.250985 22.303244 765.304898 20.436646 C 767.353895 18.591984 769.610151 16.747685 772.144389 14.896559 C 774.705478 13.028412 778.228037 12.112901 782.67311 12.118261 C 786.567133 12.115339 789.252475 13.08563 790.729134 15.029134 C 792.205793 16.972638 792.952181 19.604909 792.941449 22.942969 C 792.949017 28.358521 791.418035 33.751867 788.375355 39.105986 C 785.398485 44.474851 782.226194 51.435604 778.907269 59.976141 C 774.070371 70.664624 772.263872 78.829872 773.482856 84.493821 C 774.777479 90.128642 778.610433 92.96871 785.040338 92.958045 C 790.06331 92.954665 794.432649 91.652945 798.148354 89.052885 C 801.856868 86.382101 805.16479 82.723089 808.115994 78.085679 C 809.629416 75.752411 811.615702 74.907355 814.021149 75.584555 C 816.49732 76.254564 818.535949 77.540704 820.149142 79.491762 C 821.806207 81.452651 822.175853 83.401528 821.214207 85.328563 C 817.710594 92.122928 813.964227 99.692258 809.962999 107.987764 C 805.966686 116.261334 801.541839 124.18547 796.634756 131.794215 C 791.813143 139.329961 786.262256 145.596493 780.052819 150.586622 C 773.831277 155.527963 766.643619 157.995138 758.462992 158.00517 C 748.351237 157.997185 741.204341 153.907753 737.022303 145.736876 C 732.83535 137.587936 731.626641 127.456978 733.381431 115.409813 L 732.252482 115.41027 C 726.413796 127.279588 719.183557 137.33966 710.583702 145.5954 C 702.049656 153.865886 692.623126 157.996954 682.304114 157.988605 Z M 711.526213 97.588706 C 716.549186 97.585326 720.974867 96.134967 724.776406 93.254649 C 728.570753 90.303607 731.532245 86.751274 733.670712 82.553777 C 735.804264 78.378216 736.869761 74.239795 736.884223 70.165365 C 736.885395 65.327713 735.499754 61.538551 732.739406 58.846665 C 730.042592 56.076864 726.365562 54.70007 721.708317 54.716283 C 716.663407 54.714747 712.30126 56.087192 708.595021 58.850637 C 704.903529 61.548272 702.0154 64.978818 699.969594 69.174039 C 697.928703 73.347324 696.91427 77.566299 696.92138 81.852902 C 696.920208 86.690554 698.225294 90.53078 700.831724 93.395518 C 703.501687 96.18234 707.054289 97.600367 711.526213 97.588706 Z M 826.173092 157.994723 C 815.849165 158.00831 808.661129 155.130658 804.582135 149.378789 C 800.50314 143.626919 798.440649 136.48386 798.44345 127.937507 C 798.446709 120.520102 799.377666 112.458166 801.219299 103.724848 C 803.087783 94.974509 805.463079 86.429879 808.350104 78.069022 C 818.282477 49.677423 826.685322 25.850139 833.570747 6.635959 C 840.497768 -12.661052 847.170212 -27.223265 853.588077 -37.050682 C 860.005943 -46.878099 867.095474 -51.786218 874.883521 -51.792062 C 880.920846 -51.79854 884.71821 -49.519351 886.275612 -44.954497 C 887.85495 -40.384728 886.387232 -33.525832 881.867543 -24.355874 C 873.941454 -8.208504 867.092792 6.728903 861.34841 20.439328 C 855.599112 34.17169 851.075154 47.164947 847.7546 59.414186 C 846.179382 65.00496 845.062916 70.399033 844.38818 75.569555 C 843.745211 80.701119 844.371819 84.896152 846.321705 88.120611 C 848.271592 91.34507 852.172537 92.956337 857.99769 92.971432 C 863.042599 92.972968 867.460726 91.659142 871.247155 89.051891 C 875.048329 86.378831 878.492785 82.727373 881.585438 78.075582 C 883.142732 75.752144 885.194827 74.921834 887.719787 75.579736 C 890.266682 76.242554 892.37112 77.54344 893.984313 79.494498 C 895.641378 81.455387 895.896427 83.401624 894.771396 85.338126 C 892.824983 88.472847 890.47134 93.013771 887.715382 98.938963 C 885.013127 104.830113 881.754181 111.149433 877.938544 117.896923 C 874.159588 124.583519 869.703245 131.003148 864.623215 137.121768 C 859.587059 143.250218 853.923756 148.270565 847.59435 152.151042 C 841.281965 156.05837 834.141546 158.006263 826.173092 157.994723 Z M 904.387527 157.988073 C 893.463762 158.005484 885.413381 154.65816 880.236382 147.946099 C 875.108171 141.221932 872.558434 132.449212 872.555405 121.666896 C 872.552375 110.88458 874.694102 99.269678 878.953732 86.839212 C 881.514808 79.41898 884.362147 71.440871 887.429941 62.890141 C 890.573375 54.310283 893.959563 44.955461 897.632378 34.835506 C 893.345775 34.842616 890.095003 33.722594 887.853211 31.492463 C 885.638269 29.245311 884.172531 26.636161 883.438976 23.638162 C 882.78106 20.611036 882.771041 17.982495 883.457708 15.740433 C 884.166311 13.503286 885.404484 12.398455 887.155206 12.399088 C 895.70156 12.401889 902.384318 10.028922 907.252269 5.268082 C 912.13005 0.463369 915.552475 -4.529211 917.507439 -9.758445 C 921.011685 -18.303533 924.407986 -23.693607 927.674405 -25.933582 C 931.016465 -28.202684 934.522367 -29.352303 938.231069 -29.350674 C 943.690494 -29.348411 947.090363 -27.043099 948.40874 -22.43965 C 949.785736 -17.892181 948.252209 -11.048031 943.786224 -1.912115 C 941.65422 2.770621 940.460472 6.350439 940.219724 8.761529 C 940.022848 11.182448 941.317916 12.394134 944.061054 12.386754 L 959.239655 12.40119 C 961.197635 12.402187 962.458296 13.767427 963.016725 16.518847 C 963.584983 19.226394 963.530741 22.347365 962.880851 25.864741 C 962.218854 29.333328 960.947918 32.435097 959.106999 35.201814 C 957.236953 37.892892 954.859636 39.249311 951.909241 39.256327 C 942.970308 39.257714 936.374016 39.5997 932.110534 40.326159 C 927.817926 40.976979 924.810918 42.676099 923.055469 45.369816 C 921.295105 48.08547 919.441084 52.761379 917.48849 59.41948 C 914.371638 69.525781 914.798825 77.592538 918.791987 83.624665 C 922.773042 89.608004 929.058683 92.60599 937.653825 92.596685 C 943.500913 92.616696 948.704198 91.294494 953.248934 88.695888 C 957.820521 86.080261 961.540319 82.536574 964.452202 78.074655 C 966.009497 75.751217 967.995783 74.906161 970.423166 75.588276 C 972.904253 76.236349 974.937966 77.544425 976.551159 79.495484 C 978.213139 81.434436 978.57787 83.405249 977.616224 85.332284 C 975.854769 88.669711 973.518147 93.237487 970.569677 99.096506 C 967.662804 104.872696 964.174664 111.186737 960.105256 118.03863 C 956.001807 124.83682 951.25046 131.236425 945.775576 137.266572 C 940.366501 143.311465 934.188831 148.262636 927.254673 152.168873 C 920.369303 156.063005 912.748559 157.995426 904.387527 157.988073 Z M 977.644797 157.999548 C 969.234977 158.004301 963.312424 155.133746 959.90399 149.370862 C 956.534514 143.639744 954.842666 136.487582 954.845467 127.941228 C 954.848726 120.523823 955.779683 112.461888 957.621315 103.72857 C 959.467863 94.973315 961.84316 86.428685 964.752121 78.072743 C 974.662557 49.676229 983.087339 25.853861 989.955742 6.612829 C 996.899785 -12.65733 1003.572229 -27.219544 1009.990094 -37.046961 C 1016.386024 -46.879292 1023.497491 -51.782497 1031.285538 -51.788341 C 1037.322863 -51.794818 1041.059333 -49.552312 1042.526713 -45.099779 C 1044.011115 -40.620394 1042.57744 -33.707796 1038.26956 -24.352153 C 1034.602293 -16.004856 1030.569662 -7.87765 1026.154646 0.00261385 C 1021.783502 7.892708 1018.712975 15.221828 1016.960084 22.016827 C 1015.449948 28.036861 1015.604876 31.458115 1017.45172 32.263566 C 1019.308394 33.025145 1021.782922 31.851771 1024.858284 28.716593 C 1030.336629 23.49354 1035.973902 19.411906 1041.82608 16.530309 C 1047.671068 13.577988 1053.781663 12.113516 1060.211567 12.102851 C 1069.123648 12.118485 1075.722041 14.748831 1080.001829 20.015824 C 1084.269512 25.23403 1086.421203 31.567718 1086.422859 38.963186 C 1086.421323 44.008096 1085.623251 48.598077 1084.062684 52.786835 C 1082.550906 56.963486 1080.992978 61.037647 1079.42786 65.041083 C 1077.867657 69.022583 1077.077139 73.476031 1077.088073 78.362471 C 1077.0759 88.081647 1081.580694 92.96134 1090.541564 92.964868 C 1095.013488 92.953206 1098.736841 91.55282 1101.733561 88.768624 C 1104.771877 85.901597 1107.733369 82.349264 1110.627867 78.067751 C 1112.207098 75.749228 1114.237257 74.914003 1116.762216 75.571906 C 1119.331048 76.239639 1121.408635 77.557546 1123.026742 79.486668 C 1124.683807 81.447556 1124.960793 83.398709 1123.813826 85.330295 C 1121.867413 88.465016 1119.51377 93.005941 1116.752897 98.953069 C 1114.050642 104.844219 1110.796611 111.141602 1107.00291 117.894007 C 1103.197103 124.597625 1098.76761 131.000233 1093.687581 137.118853 C 1088.651425 143.247303 1082.966186 148.262735 1076.658716 152.148126 C 1070.346331 156.055455 1063.183975 157.998433 1055.210607 158.008829 C 1045.676752 157.992103 1039.003447 154.97637 1035.190692 148.961627 C 1031.453576 142.917758 1029.566577 135.81402 1029.573566 127.660245 C 1029.576825 120.242841 1030.740073 113.200536 1033.073139 106.489458 C 1035.379355 99.795402 1037.672373 93.674331 1039.908322 88.116415 C 1042.122334 82.553584 1043.249816 77.830071 1043.246893 73.936048 C 1043.242881 70.663797 1042.21587 68.15295 1040.192714 66.386486 C 1038.142706 64.637043 1035.459641 63.759413 1032.143518 63.753595 C 1026.520708 63.760799 1021.332626 66.146141 1016.52557 70.943664 C 1011.772216 75.707143 1007.94784 81.876733 1005.003651 89.464538 C 1002.09123 97.013386 1000.650458 105.191467 1000.642378 113.967015 L 1000.653514 127.077954 C 1000.647427 131.937542 1000.051334 136.757081 998.865234 141.536573 C 997.727923 146.303958 995.489967 150.225749 992.180496 153.377585 C 988.885771 156.463611 984.04785 158.005904 977.644797 157.999548 Z M 1162.576729 0.137091 C 1155.595776 0.139474 1149.570826 -1.348725 1144.484859 -4.354359 C 1139.452595 -7.394036 1136.931083 -12.79693 1136.925239 -20.584977 C 1136.928673 -30.882053 1139.803685 -37.955492 1145.53553 -41.739483 C 1151.294227 -45.540496 1158.124898 -47.442605 1166.071415 -47.435979 C 1173.466883 -47.437635 1179.730494 -45.780772 1184.862246 -42.465389 C 1190.037871 -39.140176 1192.25801 -32.906339 1191.483706 -23.795645 C 1190.695019 -14.8264 1187.543479 -8.575165 1182.09981 -5.049132 C 1176.670886 -1.588907 1170.179455 0.135799 1162.576729 0.137091 Z M 1130.223515 157.999001 C 1120.499424 158.008763 1113.578355 154.453723 1109.494351 147.387583 C 1105.425092 140.255634 1103.370062 131.639835 1103.378048 121.52808 C 1103.380216 114.732449 1104.048757 107.533223 1105.378756 99.952339 C 1106.740522 92.332497 1108.508886 85.057174 1110.649804 78.072666 C 1117.480246 56.841888 1124.099619 40.562994 1130.512839 29.21405 C 1136.935889 17.821232 1144.321877 12.104105 1152.660974 12.106543 C 1159.271284 12.113263 1162.579772 16.471492 1162.576607 25.225104 C 1162.583448 31.055171 1161.448869 37.044166 1159.226575 43.158046 C 1156.999366 49.293863 1154.818669 55.324912 1152.679569 61.273132 C 1150.545384 67.199415 1149.472427 72.810576 1149.465613 78.084679 C 1149.464441 82.922331 1150.677231 86.557575 1153.108896 88.968476 C 1155.51371 91.396399 1158.674098 92.611356 1162.568121 92.608434 C 1167.083918 92.606603 1170.841314 91.25992 1173.823288 88.541532 C 1176.822283 85.849997 1179.795881 82.346451 1182.734252 78.074769 C 1184.291547 75.751331 1186.287663 74.862403 1188.717686 75.429921 C 1191.142793 76.019375 1193.181422 77.305515 1194.840763 79.359064 C 1196.505019 81.390678 1196.835708 83.307788 1195.842659 85.066522 C 1193.896246 88.201243 1191.606137 92.664252 1189.006373 98.509254 C 1186.394502 104.305467 1183.228217 110.622511 1179.529452 117.465301 C 1175.818582 124.259303 1171.559665 130.723169 1166.779555 136.839876 C 1162.02138 142.9615 1156.648166 148.023807 1150.616038 152.016968 C 1144.583911 156.01013 1137.777453 158.009814 1130.223515 157.999001 Z M 1329.804757 78.084065 C 1330.939254 76.310949 1332.761792 75.682618 1335.2822 76.155199 C 1337.851395 76.615675 1340.075709 77.690005 1341.916183 79.346424 C 1343.773679 81.029695 1344.089622 83.012614 1342.924906 85.331864 C 1338.62986 94.32178 1334.503477 103.073035 1330.513992 111.624586 C 1326.524506 120.176138 1322.292536 127.959189 1317.835101 135.000592 C 1313.370475 141.97127 1308.413325 147.54148 1302.958735 151.73316 C 1297.482208 155.919924 1291.255925 158.00353 1284.274973 158.005913 C 1280.015221 157.996002 1276.597967 155.871095 1274.033041 151.587321 C 1267.811808 171.641453 1261.131904 187.676407 1254.005435 199.74097 C 1246.927754 211.793428 1239.021945 220.550244 1230.297838 225.967547 C 1221.541964 231.423806 1211.62291 234.154407 1200.518739 234.154434 C 1185.176753 234.149464 1173.270121 230.122395 1164.830608 222.034267 C 1156.315455 213.975267 1152.062868 202.931909 1152.067932 188.926131 C 1152.083297 181.557514 1153.142963 175.183131 1155.285888 169.834748 C 1157.411791 164.459514 1159.855091 160.238168 1162.620705 157.148775 C 1165.325424 154.0227 1167.757534 152.010465 1169.885269 151.151027 C 1172.017918 150.269654 1173.187737 150.600881 1173.367874 152.16173 C 1174.172073 159.368416 1177.424313 165.211492 1183.124593 169.690957 C 1188.878576 174.13638 1196.625942 176.471265 1206.34967 176.66876 C 1213.145301 176.670928 1219.556178 174.997286 1225.59932 171.674686 C 1231.610696 168.391043 1237.002117 164.070021 1241.751646 158.706705 C 1246.557154 153.402006 1250.312719 147.539526 1253.01834 141.119264 C 1255.777665 134.664959 1257.151995 128.222855 1257.136414 121.814887 C 1257.145693 119.305858 1256.177395 118.07524 1254.216775 118.18884 C 1252.283008 118.285419 1250.61257 119.777187 1249.227401 122.669059 C 1245.347328 132.788651 1239.642253 140.7715 1232.139028 146.600584 C 1224.679676 152.439498 1217.252266 155.359783 1209.856798 155.36144 C 1199.718191 155.370475 1191.663622 151.630571 1185.61745 144.170856 C 1179.603044 136.672183 1176.57371 127.469475 1176.578235 116.550625 C 1176.57293 105.675649 1178.129201 94.20602 1181.203176 82.131909 C 1184.342961 70.072543 1189.071267 58.73771 1195.383181 48.149348 C 1201.738968 37.570815 1209.642137 28.928596 1219.043903 22.234796 C 1228.48235 15.480102 1239.443698 12.10761 1251.884076 12.107489 C 1257.714143 12.100648 1262.221658 12.649866 1265.406621 13.755141 C 1268.628266 14.799523 1271.076495 16.108327 1272.756223 17.659615 C 1274.409101 19.227925 1275.816126 20.556847 1276.950448 21.663402 C 1278.148304 22.692041 1279.710338 23.226338 1281.646382 23.22242 C 1284.918632 23.218407 1287.590225 22.296527 1289.639223 20.451865 C 1291.666284 18.602287 1293.949391 16.740968 1296.461692 14.884926 C 1299.039803 13.043631 1302.545341 12.101269 1307.01235 12.111544 C 1310.906374 12.108622 1313.591715 13.078913 1315.068374 15.022417 C 1316.540118 16.987857 1317.26457 19.615213 1317.258753 22.931336 C 1317.262402 26.410844 1316.131096 30.53452 1313.85992 35.324299 C 1311.62051 40.075121 1308.700804 46.217038 1305.088694 53.701261 C 1301.525372 61.173379 1297.704644 70.822477 1293.616681 82.692427 C 1291.65963 90.501415 1291.667197 95.916967 1293.617448 98.934168 C 1295.572613 101.929433 1298.183864 103.436027 1301.456114 103.432015 C 1305.971911 103.430183 1310.74848 100.722259 1315.763885 95.303328 C 1320.85493 89.855269 1325.529547 84.106564 1329.804757 78.084065 Z M 1236.416502 97.59027 C 1241.254154 97.591442 1245.538387 96.155464 1249.230243 93.250571 C 1252.931929 90.301805 1255.871485 86.744556 1258.005037 82.568996 C 1260.138589 78.393435 1261.204086 74.255014 1261.196612 70.175669 C 1261.211438 65.893981 1259.949861 62.270843 1257.42171 59.262381 C 1254.920411 56.236898 1250.841336 54.700907 1245.174653 54.698281 C 1240.517408 54.714494 1236.384454 56.092217 1232.775792 58.83145 C 1229.172045 61.548746 1226.349725 64.994037 1224.308834 69.167322 C 1222.267943 73.340606 1221.248595 77.581518 1221.238683 81.84127 C 1221.245793 86.127872 1222.399965 89.819096 1224.735239 92.968642 C 1227.063323 96.047465 1230.957078 97.588008 1236.416502 97.59027 Z M 1370.021409 158.005162 C 1357.008046 157.992086 1346.211429 153.637788 1337.66824 144.881376 C 1329.129966 136.103026 1324.854621 124.133062 1324.859227 108.998334 C 1324.841816 98.07457 1326.853472 86.937353 1330.828388 75.571939 C 1334.830154 64.189504 1340.407974 53.690072 1347.578867 44.100495 C 1354.786442 34.450023 1363.246398 26.715841 1372.941712 20.871096 C 1382.680898 15.036181 1393.380559 12.111883 1405.06263 12.103117 C 1413.031084 12.114658 1420.226216 13.726827 1426.643111 16.961561 C 1433.052816 20.12557 1438.173742 25.442806 1441.954824 32.832713 C 1445.762759 40.205599 1447.662053 50.030538 1447.669728 62.334382 C 1447.674401 74.960081 1445.570905 87.021265 1441.403114 98.527764 C 1437.206195 109.958623 1431.463079 120.167604 1424.151828 129.14979 C 1416.899195 138.075997 1408.635482 145.139982 1399.370519 150.297872 C 1390.154345 155.443656 1380.367273 157.99649 1370.021409 158.005162 Z M 1386.688534 97.602744 C 1391.5311 97.58198 1395.793397 96.141087 1399.507189 93.241109 C 1403.208876 90.292342 1406.126495 86.730179 1408.281983 82.559533 C 1410.415535 78.383973 1411.481032 74.245552 1411.473558 70.166207 C 1411.488385 65.884519 1410.226808 62.261381 1407.693742 59.274855 C 1405.175421 56.22252 1401.09143 54.708466 1395.446684 54.710755 C 1390.794354 54.705032 1386.6614 56.082755 1383.047823 58.843924 C 1379.448991 61.539284 1376.626672 64.984574 1374.580865 69.179796 C 1372.539974 73.353081 1371.503605 77.567141 1371.510715 81.853744 C 1371.52274 86.11841 1372.671996 89.83157 1375.012186 92.95918 C 1377.335355 96.059939 1381.229109 97.600482 1386.688534 97.602744 Z M 1386.688534 97.602744 " stroke="#cb7f00" stroke-width="37.203098" stroke-opacity="1" stroke-miterlimit="4"/><g fill="#fed5ff" fill-opacity="1"><g transform="translate(92.606417, 113.413841)"><g><path d="M 40.953125 -23.40625 C 41.128906 -23.863281 41.441406 -24.082031 41.890625 -24.0625 C 42.347656 -24.039062 42.75 -23.894531 43.09375 -23.625 C 43.445312 -23.363281 43.566406 -23.046875 43.453125 -22.671875 C 43.234375 -22.035156 43 -21.164062 42.75 -20.0625 C 42.5 -18.96875 42.15625 -17.773438 41.71875 -16.484375 C 41.28125 -15.191406 40.710938 -13.921875 40.015625 -12.671875 C 39.328125 -11.429688 38.460938 -10.347656 37.421875 -9.421875 C 36.390625 -8.492188 35.148438 -7.867188 33.703125 -7.546875 C 31.953125 -7.160156 30.429688 -7.359375 29.140625 -8.140625 C 27.859375 -8.921875 27.003906 -10.269531 26.578125 -12.1875 C 26.335938 -13.269531 26.148438 -14.445312 26.015625 -15.71875 C 25.878906 -16.988281 25.894531 -18.425781 26.0625 -20.03125 L 26.0625 -20.234375 C 26.15625 -21.253906 26.054688 -21.90625 25.765625 -22.1875 C 25.472656 -22.46875 25.019531 -22.539062 24.40625 -22.40625 C 23.800781 -22.269531 23.070312 -22.101562 22.21875 -21.90625 C 21.851562 -21.820312 21.507812 -21.691406 21.1875 -21.515625 C 20.863281 -21.347656 20.585938 -20.890625 20.359375 -20.140625 C 20.335938 -20.003906 20.304688 -19.851562 20.265625 -19.6875 C 20.234375 -19.519531 20.195312 -19.363281 20.15625 -19.21875 C 20.019531 -18.457031 19.890625 -17.769531 19.765625 -17.15625 C 19.648438 -16.539062 19.546875 -16.035156 19.453125 -15.640625 C 18.523438 -11.335938 17.023438 -7.734375 14.953125 -4.828125 C 12.878906 -1.921875 10.078125 -0.0703125 6.546875 0.71875 C 4.640625 1.144531 2.957031 1.097656 1.5 0.578125 C 0.0507812 0.0546875 -1.125 -0.773438 -2.03125 -1.921875 C -2.945312 -3.078125 -3.554688 -4.332031 -3.859375 -5.6875 C -4.160156 -7.039062 -4.179688 -8.394531 -3.921875 -9.75 C -3.660156 -11.101562 -3.117188 -12.28125 -2.296875 -13.28125 C -1.472656 -14.28125 -0.410156 -14.925781 0.890625 -15.21875 C 1.390625 -15.332031 1.679688 -15.191406 1.765625 -14.796875 C 2.015625 -13.710938 2.6875 -12.9375 3.78125 -12.46875 C 4.875 -12 6.097656 -11.914062 7.453125 -12.21875 C 8.609375 -12.476562 9.726562 -13.03125 10.8125 -13.875 C 11.90625 -14.71875 12.851562 -15.890625 13.65625 -17.390625 C 14.46875 -18.890625 15.035156 -20.722656 15.359375 -22.890625 C 15.597656 -24.554688 15.882812 -26.335938 16.21875 -28.234375 C 16.5625 -30.140625 16.894531 -32.128906 17.21875 -34.203125 C 15.582031 -34.285156 14.144531 -33.953125 12.90625 -33.203125 C 11.664062 -32.460938 10.757812 -31.460938 10.1875 -30.203125 C 9.625 -28.953125 9.5 -27.617188 9.8125 -26.203125 C 9.96875 -25.503906 10.28125 -24.957031 10.75 -24.5625 C 11.226562 -24.175781 11.726562 -24.039062 12.25 -24.15625 C 12.601562 -23.675781 12.765625 -23.039062 12.734375 -22.25 C 12.703125 -21.46875 12.46875 -20.675781 12.03125 -19.875 C 11.601562 -19.070312 10.988281 -18.335938 10.1875 -17.671875 C 9.394531 -17.003906 8.40625 -16.535156 7.21875 -16.265625 C 5.863281 -15.960938 4.644531 -16.046875 3.5625 -16.515625 C 2.488281 -16.984375 1.597656 -17.726562 0.890625 -18.75 C 0.179688 -19.769531 -0.3125 -20.90625 -0.59375 -22.15625 C -1.070312 -24.269531 -1.078125 -26.363281 -0.609375 -28.4375 C -0.140625 -30.519531 0.753906 -32.460938 2.078125 -34.265625 C 3.410156 -36.078125 5.097656 -37.644531 7.140625 -38.96875 C 9.179688 -40.289062 11.535156 -41.25 14.203125 -41.84375 C 17.535156 -42.59375 19.867188 -42.34375 21.203125 -41.09375 C 22.546875 -39.851562 23.019531 -37.882812 22.625 -35.1875 C 22.414062 -32.875 22.109375 -30.457031 21.703125 -27.9375 C 21.710938 -27.90625 21.703125 -27.863281 21.671875 -27.8125 C 21.523438 -26.78125 21.625 -26.164062 21.96875 -25.96875 C 22.320312 -25.769531 22.710938 -25.71875 23.140625 -25.8125 C 23.410156 -25.875 23.773438 -25.96875 24.234375 -26.09375 C 24.691406 -26.21875 25.148438 -26.347656 25.609375 -26.484375 C 26.265625 -26.691406 26.648438 -27.023438 26.765625 -27.484375 C 26.890625 -27.941406 27.015625 -28.632812 27.140625 -29.5625 C 27.546875 -33.019531 28.019531 -35.976562 28.5625 -38.4375 C 29.101562 -40.894531 29.851562 -42.835938 30.8125 -44.265625 C 31.78125 -45.691406 33.054688 -46.585938 34.640625 -46.953125 C 35.890625 -47.222656 36.988281 -47.054688 37.9375 -46.453125 C 38.882812 -45.847656 39.554688 -44.675781 39.953125 -42.9375 C 40.347656 -41.15625 40.320312 -39.195312 39.875 -37.0625 C 39.4375 -34.9375 38.625 -32.894531 37.4375 -30.9375 C 36.257812 -28.976562 34.738281 -27.359375 32.875 -26.078125 C 32 -25.460938 31.710938 -24.492188 32.015625 -23.171875 C 32.265625 -22.023438 32.820312 -21.113281 33.6875 -20.4375 C 34.550781 -19.757812 35.578125 -19.554688 36.765625 -19.828125 C 37.660156 -20.023438 38.492188 -20.429688 39.265625 -21.046875 C 40.035156 -21.671875 40.597656 -22.457031 40.953125 -23.40625 Z M 31.9375 -32.984375 C 31.820312 -31.640625 31.816406 -30.804688 31.921875 -30.484375 C 32.023438 -30.171875 32.195312 -30.039062 32.4375 -30.09375 C 32.925781 -30.195312 33.410156 -30.613281 33.890625 -31.34375 C 34.367188 -32.070312 34.734375 -32.882812 34.984375 -33.78125 C 35.234375 -34.6875 35.289062 -35.4375 35.15625 -36.03125 C 34.976562 -36.851562 34.539062 -37.1875 33.84375 -37.03125 C 33.15625 -36.882812 32.691406 -36.410156 32.453125 -35.609375 C 32.210938 -34.816406 32.039062 -33.941406 31.9375 -32.984375 Z M 31.9375 -32.984375 "/></g></g></g><g fill="#fed5ff" fill-opacity="1"><g transform="translate(135.450796, 103.813963)"><g><path d="M 9.296875 -2.078125 C 7.316406 -1.640625 5.59375 -1.722656 4.125 -2.328125 C 2.65625 -2.929688 1.453125 -3.898438 0.515625 -5.234375 C -0.421875 -6.566406 -1.078125 -8.113281 -1.453125 -9.875 C -1.828125 -11.644531 -1.914062 -13.476562 -1.71875 -15.375 C -1.53125 -17.269531 -1.035156 -19.078125 -0.234375 -20.796875 C 0.554688 -22.515625 1.648438 -24 3.046875 -25.25 C 4.441406 -26.5 6.144531 -27.351562 8.15625 -27.8125 C 9.707031 -28.15625 11.035156 -28.144531 12.140625 -27.78125 C 13.242188 -27.425781 14.132812 -26.820312 14.8125 -25.96875 C 15.488281 -25.125 15.953125 -24.160156 16.203125 -23.078125 C 16.460938 -21.878906 16.394531 -20.609375 16 -19.265625 C 15.601562 -17.929688 14.898438 -16.742188 13.890625 -15.703125 C 12.878906 -14.671875 11.5625 -13.972656 9.9375 -13.609375 C 9.25 -13.453125 8.5625 -13.347656 7.875 -13.296875 C 7.1875 -13.242188 6.523438 -13.328125 5.890625 -13.546875 C 5.710938 -13.585938 5.535156 -13.546875 5.359375 -13.421875 C 5.179688 -13.304688 5.128906 -13.082031 5.203125 -12.75 C 5.390625 -11.894531 6.035156 -11.359375 7.140625 -11.140625 C 8.242188 -10.921875 9.503906 -10.972656 10.921875 -11.296875 C 12.609375 -11.671875 14.253906 -12.484375 15.859375 -13.734375 C 17.472656 -14.992188 18.644531 -16.601562 19.375 -18.5625 C 19.550781 -19.03125 19.863281 -19.25 20.3125 -19.21875 C 20.769531 -19.195312 21.171875 -19.050781 21.515625 -18.78125 C 21.867188 -18.519531 21.988281 -18.203125 21.875 -17.828125 C 20.601562 -13.328125 18.90625 -9.738281 16.78125 -7.0625 C 14.65625 -4.382812 12.160156 -2.722656 9.296875 -2.078125 Z M 7.8125 -17.03125 C 8.769531 -17.238281 9.453125 -17.707031 9.859375 -18.4375 C 10.273438 -19.175781 10.414062 -19.863281 10.28125 -20.5 C 10.15625 -21.050781 9.851562 -21.476562 9.375 -21.78125 C 8.90625 -22.09375 8.296875 -22.164062 7.546875 -22 C 6.585938 -21.789062 5.890625 -21.320312 5.453125 -20.59375 C 5.023438 -19.875 4.882812 -19.1875 5.03125 -18.53125 C 5.15625 -18 5.453125 -17.570312 5.921875 -17.25 C 6.390625 -16.925781 7.019531 -16.851562 7.8125 -17.03125 Z M 7.8125 -17.03125 "/></g></g></g><g fill="#fed5ff" fill-opacity="1"><g transform="translate(156.724565, 99.04728)"><g><path d="M 5.25 -1.171875 C 3.5625 -0.796875 2.132812 -1.203125 0.96875 -2.390625 C -0.195312 -3.585938 -1.023438 -5.289062 -1.515625 -7.5 C -1.828125 -8.882812 -1.984375 -10.398438 -1.984375 -12.046875 C -1.992188 -13.691406 -1.832031 -15.347656 -1.5 -17.015625 C -1.164062 -18.679688 -0.628906 -20.242188 0.109375 -21.703125 C 0.859375 -23.171875 1.828125 -24.425781 3.015625 -25.46875 C 4.203125 -26.519531 5.65625 -27.238281 7.375 -27.625 C 8.351562 -27.84375 9.132812 -27.925781 9.71875 -27.875 C 10.3125 -27.820312 10.773438 -27.691406 11.109375 -27.484375 C 11.453125 -27.285156 11.738281 -27.113281 11.96875 -26.96875 C 12.207031 -26.832031 12.492188 -26.804688 12.828125 -26.890625 C 13.390625 -27.015625 13.8125 -27.269531 14.09375 -27.65625 C 14.375 -28.039062 14.691406 -28.4375 15.046875 -28.84375 C 15.398438 -29.257812 15.957031 -29.550781 16.71875 -29.71875 C 17.375 -29.863281 17.863281 -29.800781 18.1875 -29.53125 C 18.507812 -29.257812 18.738281 -28.84375 18.875 -28.28125 C 19.070312 -27.363281 19.015625 -26.390625 18.703125 -25.359375 C 18.390625 -24.335938 18.125 -23.039062 17.90625 -21.46875 C 17.488281 -19.46875 17.492188 -18.007812 17.921875 -17.09375 C 18.347656 -16.1875 19.101562 -15.859375 20.1875 -16.109375 C 21.050781 -16.296875 21.742188 -16.679688 22.265625 -17.265625 C 22.796875 -17.847656 23.222656 -18.59375 23.546875 -19.5 C 23.710938 -19.96875 24.015625 -20.1875 24.453125 -20.15625 C 24.890625 -20.125 25.285156 -19.972656 25.640625 -19.703125 C 25.992188 -19.441406 26.125 -19.128906 26.03125 -18.765625 C 25.695312 -17.472656 25.347656 -16.050781 24.984375 -14.5 C 24.617188 -12.957031 24.171875 -11.445312 23.640625 -9.96875 C 23.109375 -8.5 22.40625 -7.222656 21.53125 -6.140625 C 20.664062 -5.066406 19.539062 -4.375 18.15625 -4.0625 C 16.4375 -3.675781 15.066406 -4.097656 14.046875 -5.328125 C 13.035156 -6.554688 12.445312 -8.226562 12.28125 -10.34375 L 12.078125 -10.3125 C 11.554688 -8.0625 10.722656 -6.070312 9.578125 -4.34375 C 8.441406 -2.625 7 -1.566406 5.25 -1.171875 Z M 7.890625 -12.53125 C 8.753906 -12.726562 9.453125 -13.140625 9.984375 -13.765625 C 10.515625 -14.398438 10.878906 -15.113281 11.078125 -15.90625 C 11.285156 -16.707031 11.3125 -17.453125 11.15625 -18.140625 C 10.976562 -18.960938 10.601562 -19.550781 10.03125 -19.90625 C 9.46875 -20.269531 8.789062 -20.363281 8 -20.1875 C 7.144531 -20 6.453125 -19.597656 5.921875 -18.984375 C 5.398438 -18.378906 5.046875 -17.6875 4.859375 -16.90625 C 4.671875 -16.125 4.660156 -15.375 4.828125 -14.65625 C 5.015625 -13.820312 5.382812 -13.21875 5.9375 -12.84375 C 6.488281 -12.46875 7.140625 -12.363281 7.890625 -12.53125 Z M 7.890625 -12.53125 "/></g></g></g><g fill="#fed5ff" fill-opacity="1"><g transform="translate(182.15414, 93.349431)"><g><path d="M 4.203125 -0.9375 C 2.453125 -0.550781 1.125 -0.765625 0.21875 -1.578125 C -0.6875 -2.390625 -1.300781 -3.523438 -1.625 -4.984375 C -1.90625 -6.242188 -2.054688 -7.648438 -2.078125 -9.203125 C -2.109375 -10.753906 -2.03125 -12.289062 -1.84375 -13.8125 C -1.25 -19.007812 -0.726562 -23.367188 -0.28125 -26.890625 C 0.164062 -30.421875 0.742188 -33.140625 1.453125 -35.046875 C 2.160156 -36.960938 3.175781 -38.070312 4.5 -38.375 C 5.519531 -38.601562 6.25 -38.359375 6.6875 -37.640625 C 7.125 -36.921875 7.140625 -35.703125 6.734375 -33.984375 C 5.992188 -30.941406 5.394531 -28.148438 4.9375 -25.609375 C 4.488281 -23.066406 4.21875 -20.691406 4.125 -18.484375 C 4.070312 -17.472656 4.082031 -16.515625 4.15625 -15.609375 C 4.238281 -14.710938 4.503906 -14.023438 4.953125 -13.546875 C 5.410156 -13.078125 6.140625 -12.957031 7.140625 -13.1875 C 7.992188 -13.375 8.691406 -13.757812 9.234375 -14.34375 C 9.773438 -14.9375 10.21875 -15.6875 10.5625 -16.59375 C 10.738281 -17.0625 11.054688 -17.28125 11.515625 -17.25 C 11.972656 -17.226562 12.375 -17.082031 12.71875 -16.8125 C 13.070312 -16.550781 13.1875 -16.234375 13.0625 -15.859375 C 12.863281 -15.265625 12.644531 -14.410156 12.40625 -13.296875 C 12.164062 -12.179688 11.851562 -10.984375 11.46875 -9.703125 C 11.082031 -8.421875 10.578125 -7.164062 9.953125 -5.9375 C 9.328125 -4.71875 8.550781 -3.65625 7.625 -2.75 C 6.695312 -1.84375 5.554688 -1.238281 4.203125 -0.9375 Z M 4.203125 -0.9375 "/></g></g></g><g fill="#fed5ff" fill-opacity="1"><g transform="translate(194.621559, 90.555933)"><g><path d="M 5 -1.125 C 3.144531 -0.707031 1.65625 -0.96875 0.53125 -1.90625 C -0.59375 -2.851562 -1.359375 -4.238281 -1.765625 -6.0625 C -2.179688 -7.894531 -2.265625 -9.953125 -2.015625 -12.234375 C -1.859375 -13.578125 -1.679688 -15.035156 -1.484375 -16.609375 C -1.296875 -18.179688 -1.070312 -19.890625 -0.8125 -21.734375 C -1.53125 -21.578125 -2.125 -21.644531 -2.59375 -21.9375 C -3.070312 -22.226562 -3.425781 -22.617188 -3.65625 -23.109375 C -3.882812 -23.597656 -3.984375 -24.039062 -3.953125 -24.4375 C -3.921875 -24.84375 -3.753906 -25.082031 -3.453125 -25.15625 C -2.003906 -25.476562 -0.957031 -26.132812 -0.3125 -27.125 C 0.320312 -28.113281 0.710938 -29.097656 0.859375 -30.078125 C 1.117188 -31.648438 1.488281 -32.691406 1.96875 -33.203125 C 2.445312 -33.710938 3 -34.035156 3.625 -34.171875 C 4.550781 -34.378906 5.210938 -34.117188 5.609375 -33.390625 C 6.015625 -32.671875 6.007812 -31.445312 5.59375 -29.71875 C 5.40625 -28.851562 5.34375 -28.207031 5.40625 -27.78125 C 5.46875 -27.363281 5.726562 -27.207031 6.1875 -27.3125 L 8.765625 -27.890625 C 9.097656 -27.960938 9.363281 -27.773438 9.5625 -27.328125 C 9.769531 -26.890625 9.878906 -26.363281 9.890625 -25.75 C 9.910156 -25.132812 9.8125 -24.5625 9.59375 -24.03125 C 9.382812 -23.5 9.035156 -23.175781 8.546875 -23.0625 C 7.023438 -22.726562 5.914062 -22.421875 5.21875 -22.140625 C 4.519531 -21.867188 4.070312 -21.46875 3.875 -20.9375 C 3.6875 -20.40625 3.554688 -19.539062 3.484375 -18.34375 C 3.335938 -16.507812 3.71875 -15.15625 4.625 -14.28125 C 5.53125 -13.40625 6.707031 -13.132812 8.15625 -13.46875 C 9.144531 -13.6875 9.976562 -14.101562 10.65625 -14.71875 C 11.332031 -15.332031 11.832031 -16.078125 12.15625 -16.953125 C 12.320312 -17.410156 12.625 -17.625 13.0625 -17.59375 C 13.5 -17.570312 13.894531 -17.425781 14.25 -17.15625 C 14.601562 -16.894531 14.734375 -16.582031 14.640625 -16.21875 C 14.472656 -15.59375 14.253906 -14.726562 13.984375 -13.625 C 13.710938 -12.519531 13.359375 -11.3125 12.921875 -10 C 12.492188 -8.695312 11.929688 -7.429688 11.234375 -6.203125 C 10.546875 -4.984375 9.6875 -3.910156 8.65625 -2.984375 C 7.632812 -2.054688 6.414062 -1.4375 5 -1.125 Z M 5 -1.125 "/></g></g></g><g fill="#fed5ff" fill-opacity="1"><g transform="translate(208.672136, 87.407706)"><g><path d="M 3.375 -0.75 C 1.945312 -0.4375 0.835938 -0.695312 0.046875 -1.53125 C -0.742188 -2.375 -1.300781 -3.523438 -1.625 -4.984375 C -1.90625 -6.242188 -2.054688 -7.648438 -2.078125 -9.203125 C -2.109375 -10.753906 -2.03125 -12.289062 -1.84375 -13.8125 C -1.25 -19.007812 -0.726562 -23.367188 -0.28125 -26.890625 C 0.164062 -30.421875 0.742188 -33.140625 1.453125 -35.046875 C 2.160156 -36.960938 3.175781 -38.070312 4.5 -38.375 C 5.519531 -38.601562 6.238281 -38.363281 6.65625 -37.65625 C 7.082031 -36.945312 7.109375 -35.722656 6.734375 -33.984375 C 6.421875 -32.421875 6.039062 -30.890625 5.59375 -29.390625 C 5.15625 -27.890625 4.914062 -26.523438 4.875 -25.296875 C 4.84375 -24.222656 4.992188 -23.65625 5.328125 -23.59375 C 5.671875 -23.53125 6.050781 -23.820312 6.46875 -24.46875 C 7.195312 -25.5625 8 -26.46875 8.875 -27.1875 C 9.75 -27.90625 10.726562 -28.382812 11.8125 -28.625 C 13.332031 -28.96875 14.554688 -28.773438 15.484375 -28.046875 C 16.410156 -27.316406 17.015625 -26.328125 17.296875 -25.078125 C 17.484375 -24.222656 17.523438 -23.40625 17.421875 -22.625 C 17.328125 -21.851562 17.222656 -21.101562 17.109375 -20.375 C 16.992188 -19.644531 17.023438 -18.867188 17.203125 -18.046875 C 17.578125 -16.390625 18.519531 -15.734375 20.03125 -16.078125 C 20.789062 -16.242188 21.375 -16.625 21.78125 -17.21875 C 22.1875 -17.8125 22.554688 -18.523438 22.890625 -19.359375 C 23.054688 -19.816406 23.367188 -20.035156 23.828125 -20.015625 C 24.285156 -19.992188 24.691406 -19.847656 25.046875 -19.578125 C 25.398438 -19.316406 25.507812 -19 25.375 -18.625 C 25.175781 -18.03125 24.957031 -17.175781 24.71875 -16.0625 C 24.476562 -14.945312 24.164062 -13.75 23.78125 -12.46875 C 23.394531 -11.1875 22.890625 -9.929688 22.265625 -8.703125 C 21.640625 -7.472656 20.863281 -6.40625 19.9375 -5.5 C 19.019531 -4.601562 17.882812 -4.003906 16.53125 -3.703125 C 14.914062 -3.335938 13.671875 -3.59375 12.796875 -4.46875 C 11.921875 -5.34375 11.328125 -6.472656 11.015625 -7.859375 C 10.734375 -9.117188 10.660156 -10.363281 10.796875 -11.59375 C 10.941406 -12.820312 11.097656 -13.945312 11.265625 -14.96875 C 11.441406 -16 11.457031 -16.84375 11.3125 -17.5 C 11.1875 -18.0625 10.914062 -18.453125 10.5 -18.671875 C 10.09375 -18.890625 9.601562 -18.9375 9.03125 -18.8125 C 8.070312 -18.59375 7.28125 -17.984375 6.65625 -16.984375 C 6.03125 -15.992188 5.613281 -14.800781 5.40625 -13.40625 C 5.195312 -12.019531 5.257812 -10.582031 5.59375 -9.09375 L 6.09375 -6.875 C 6.28125 -6.050781 6.363281 -5.210938 6.34375 -4.359375 C 6.320312 -3.503906 6.09375 -2.75 5.65625 -2.09375 C 5.21875 -1.445312 4.457031 -1 3.375 -0.75 Z M 3.375 -0.75 "/></g></g></g><g fill="#fed5ff" fill-opacity="1"><g transform="translate(233.458558, 81.853964)"><g><path d="M 3.9375 -29.015625 C 2.75 -28.742188 1.671875 -28.765625 0.703125 -29.078125 C -0.265625 -29.390625 -0.894531 -30.207031 -1.1875 -31.53125 C -1.582031 -33.28125 -1.363281 -34.582031 -0.53125 -35.4375 C 0.289062 -36.300781 1.378906 -36.882812 2.734375 -37.1875 C 3.984375 -37.46875 5.109375 -37.425781 6.109375 -37.0625 C 7.109375 -36.695312 7.710938 -35.726562 7.921875 -34.15625 C 8.148438 -32.601562 7.863281 -31.425781 7.0625 -30.625 C 6.269531 -29.832031 5.226562 -29.296875 3.9375 -29.015625 Z M 4.453125 -1 C 2.804688 -0.625 1.5 -0.960938 0.53125 -2.015625 C -0.425781 -3.066406 -1.097656 -4.453125 -1.484375 -6.171875 C -1.734375 -7.316406 -1.890625 -8.554688 -1.953125 -9.890625 C -2.015625 -11.234375 -1.992188 -12.535156 -1.890625 -13.796875 C -1.554688 -17.660156 -1.0625 -20.675781 -0.40625 -22.84375 C 0.25 -25.019531 1.289062 -26.265625 2.71875 -26.578125 C 3.832031 -26.835938 4.554688 -26.222656 4.890625 -24.734375 C 5.117188 -23.753906 5.160156 -22.703125 5.015625 -21.578125 C 4.867188 -20.453125 4.722656 -19.34375 4.578125 -18.25 C 4.441406 -17.164062 4.476562 -16.175781 4.6875 -15.28125 C 4.863281 -14.457031 5.203125 -13.882812 5.703125 -13.5625 C 6.210938 -13.238281 6.796875 -13.15625 7.453125 -13.3125 C 8.210938 -13.476562 8.796875 -13.847656 9.203125 -14.421875 C 9.609375 -15.003906 9.984375 -15.710938 10.328125 -16.546875 C 10.492188 -17.003906 10.789062 -17.226562 11.21875 -17.21875 C 11.65625 -17.21875 12.050781 -17.070312 12.40625 -16.78125 C 12.769531 -16.5 12.90625 -16.1875 12.8125 -15.84375 C 12.601562 -15.25 12.382812 -14.40625 12.15625 -13.3125 C 11.925781 -12.226562 11.628906 -11.035156 11.265625 -9.734375 C 10.898438 -8.441406 10.429688 -7.1875 9.859375 -5.96875 C 9.285156 -4.757812 8.5625 -3.703125 7.6875 -2.796875 C 6.820312 -1.890625 5.742188 -1.289062 4.453125 -1 Z M 4.453125 -1 "/></g></g></g><g fill="#fed5ff" fill-opacity="1"><g transform="translate(245.629134, 79.126978)"><g><path d="M 23.09375 -19.40625 C 23.21875 -19.75 23.503906 -19.925781 23.953125 -19.9375 C 24.398438 -19.945312 24.8125 -19.847656 25.1875 -19.640625 C 25.570312 -19.441406 25.703125 -19.113281 25.578125 -18.65625 C 25.203125 -16.988281 24.835938 -15.351562 24.484375 -13.75 C 24.128906 -12.144531 23.707031 -10.664062 23.21875 -9.3125 C 22.726562 -7.957031 22.097656 -6.816406 21.328125 -5.890625 C 20.566406 -4.972656 19.59375 -4.382812 18.40625 -4.125 C 17.6875 -3.957031 17.03125 -4.1875 16.4375 -4.8125 C 16.132812 -1.175781 15.609375 1.789062 14.859375 4.09375 C 14.117188 6.40625 13.109375 8.191406 11.828125 9.453125 C 10.554688 10.710938 8.976562 11.554688 7.09375 11.984375 C 4.488281 12.566406 2.3125 12.332031 0.5625 11.28125 C -1.175781 10.226562 -2.3125 8.515625 -2.84375 6.140625 C -3.125 4.890625 -3.179688 3.769531 -3.015625 2.78125 C -2.847656 1.789062 -2.597656 0.976562 -2.265625 0.34375 C -1.929688 -0.28125 -1.59375 -0.707031 -1.25 -0.9375 C -0.914062 -1.175781 -0.703125 -1.160156 -0.609375 -0.890625 C -0.210938 0.296875 0.554688 1.15625 1.703125 1.6875 C 2.847656 2.226562 4.25 2.332031 5.90625 2 C 7.050781 1.75 8.070312 1.226562 8.96875 0.4375 C 9.863281 -0.351562 10.613281 -1.289062 11.21875 -2.375 C 11.820312 -3.46875 12.234375 -4.609375 12.453125 -5.796875 C 12.679688 -6.992188 12.671875 -8.132812 12.421875 -9.21875 C 12.328125 -9.65625 12.117188 -9.828125 11.796875 -9.734375 C 11.472656 -9.640625 11.25 -9.320312 11.125 -8.78125 C 10.851562 -6.925781 10.191406 -5.359375 9.140625 -4.078125 C 8.097656 -2.796875 6.953125 -2.015625 5.703125 -1.734375 C 3.984375 -1.347656 2.46875 -1.675781 1.15625 -2.71875 C -0.144531 -3.757812 -1.003906 -5.207031 -1.421875 -7.0625 C -1.835938 -8.90625 -2.007812 -10.910156 -1.9375 -13.078125 C -1.863281 -15.242188 -1.492188 -17.34375 -0.828125 -19.375 C -0.171875 -21.414062 0.828125 -23.179688 2.171875 -24.671875 C 3.523438 -26.171875 5.257812 -27.15625 7.375 -27.625 C 8.351562 -27.84375 9.132812 -27.925781 9.71875 -27.875 C 10.3125 -27.820312 10.773438 -27.691406 11.109375 -27.484375 C 11.453125 -27.285156 11.738281 -27.113281 11.96875 -26.96875 C 12.207031 -26.832031 12.492188 -26.804688 12.828125 -26.890625 C 13.390625 -27.015625 13.8125 -27.269531 14.09375 -27.65625 C 14.375 -28.039062 14.691406 -28.4375 15.046875 -28.84375 C 15.398438 -29.257812 15.957031 -29.550781 16.71875 -29.71875 C 17.375 -29.863281 17.863281 -29.800781 18.1875 -29.53125 C 18.507812 -29.257812 18.738281 -28.84375 18.875 -28.28125 C 19 -27.6875 18.960938 -26.941406 18.765625 -26.046875 C 18.566406 -25.160156 18.304688 -24.007812 17.984375 -22.59375 C 17.660156 -21.1875 17.375 -19.40625 17.125 -17.25 C 17.09375 -15.851562 17.296875 -14.9375 17.734375 -14.5 C 18.171875 -14.0625 18.675781 -13.90625 19.25 -14.03125 C 20 -14.195312 20.703125 -14.835938 21.359375 -15.953125 C 22.015625 -17.078125 22.59375 -18.226562 23.09375 -19.40625 Z M 8 -12.5625 C 8.820312 -12.738281 9.488281 -13.140625 10 -13.765625 C 10.519531 -14.398438 10.878906 -15.113281 11.078125 -15.90625 C 11.285156 -16.707031 11.3125 -17.453125 11.15625 -18.140625 C 11 -18.867188 10.644531 -19.4375 10.09375 -19.84375 C 9.550781 -20.257812 8.800781 -20.363281 7.84375 -20.15625 C 7.050781 -19.976562 6.398438 -19.585938 5.890625 -18.984375 C 5.390625 -18.378906 5.046875 -17.6875 4.859375 -16.90625 C 4.671875 -16.125 4.660156 -15.375 4.828125 -14.65625 C 4.984375 -13.925781 5.316406 -13.34375 5.828125 -12.90625 C 6.347656 -12.46875 7.070312 -12.351562 8 -12.5625 Z M 8 -12.5625 "/></g></g></g><g fill="#fed5ff" fill-opacity="1"><g transform="translate(270.61345, 73.528895)"><g><path d="M 7.953125 -1.78125 C 5.753906 -1.289062 3.757812 -1.625 1.96875 -2.78125 C 0.1875 -3.9375 -0.988281 -5.800781 -1.5625 -8.375 C -1.976562 -10.21875 -2.0625 -12.179688 -1.8125 -14.265625 C -1.570312 -16.347656 -1.023438 -18.34375 -0.171875 -20.25 C 0.679688 -22.15625 1.820312 -23.785156 3.25 -25.140625 C 4.675781 -26.503906 6.378906 -27.40625 8.359375 -27.84375 C 9.710938 -28.144531 10.992188 -28.144531 12.203125 -27.84375 C 13.421875 -27.539062 14.488281 -26.835938 15.40625 -25.734375 C 16.332031 -24.628906 17.023438 -23.035156 17.484375 -20.953125 C 17.972656 -18.804688 18.078125 -16.679688 17.796875 -14.578125 C 17.523438 -12.484375 16.941406 -10.535156 16.046875 -8.734375 C 15.148438 -6.941406 14.015625 -5.429688 12.640625 -4.203125 C 11.265625 -2.984375 9.703125 -2.175781 7.953125 -1.78125 Z M 8.484375 -12.671875 C 9.316406 -12.847656 9.988281 -13.25 10.5 -13.875 C 11.019531 -14.507812 11.378906 -15.222656 11.578125 -16.015625 C 11.773438 -16.816406 11.796875 -17.5625 11.640625 -18.25 C 11.484375 -18.976562 11.132812 -19.550781 10.59375 -19.96875 C 10.050781 -20.382812 9.304688 -20.484375 8.359375 -20.265625 C 7.554688 -20.085938 6.898438 -19.695312 6.390625 -19.09375 C 5.890625 -18.5 5.546875 -17.804688 5.359375 -17.015625 C 5.171875 -16.234375 5.160156 -15.484375 5.328125 -14.765625 C 5.484375 -14.035156 5.816406 -13.453125 6.328125 -13.015625 C 6.847656 -12.578125 7.566406 -12.460938 8.484375 -12.671875 Z M 8.484375 -12.671875 "/></g></g></g><g fill="#fed5ff" fill-opacity="1"><g transform="translate(292.680891, 68.584379)"><g/></g></g></svg>